<?xml version="1.0" encoding="utf-8"?>
<!-- Generator: Adobe Illustrator 22.0.1, SVG Export Plug-In . SVG Version: 6.00 Build 0)  -->
<svg version="1.1" id="Capa_1" xmlns="http://www.w3.org/2000/svg" xmlns:xlink="http://www.w3.org/1999/xlink" x="0px" y="0px"
	 viewBox="0 0 512 512" style="enable-background:new 0 0 512 512;" xml:space="preserve">
<style type="text/css">
	.st0{fill:#34282C;}
</style>
<g>
	<g>
		<path class="st0" d="M462.5,206.4h-93.3V10c0-5.5-4.5-10-10-10H152.8c-5.5,0-10,4.5-10,10v196.4H49.5c-5.5,0-10,4.5-10,10v58.2
			c0,5.5,4.5,10,10,10s10-4.5,10-10v-48.2H109v67.2c0,7.7,8.7,12.5,15.2,8.5l28.5-17.5l28.5,17.5c3.1,1.9,7,2,10.1,0.2
			s5.1-5.1,5.1-8.7v-67.2H246v83c-0.6,0.6-1.3,1.1-2,1.8c-10.6,9.4-28.3,25.2-65.3,33.7c-4.5,1-7.8,5.1-7.8,9.7v47.9
			c0,3.5,0.2,6.9,0.5,10.3h-112v-48.3c0-5.5-4.5-10-10-10s-10,4.5-10,10v58.3c0,5.5,4.5,10,10,10h126.2c4,12.4,10.7,24.1,19.8,34.9
			c12.9,15.2,30.6,28.9,55.7,43.1c1.5,0.9,3.2,1.3,4.9,1.3s3.4-0.4,4.9-1.3c25.1-14.2,42.8-27.9,55.8-43.1
			c9.2-10.8,15.8-22.5,19.8-34.9h125.8c5.5,0,10-4.5,10-10V216.4C472.5,210.8,468,206.4,462.5,206.4L462.5,206.4z M335.5,226.4H383
			v49.3l-18.5-11.4c-3.2-2-7.3-2-10.5,0l-18.5,11.4V226.4z M232.3,20h47.5v49.3l-18.5-11.4c-3.2-2-7.3-2-10.5,0l-18.5,11.4V20z
			 M162.8,20h49.5v67.2c0,3.6,2,7,5.1,8.7c3.2,1.8,7,1.7,10.1-0.2L256,78.1l28.5,17.5c1.6,1,3.4,1.5,5.2,1.5c1.7,0,3.4-0.4,4.9-1.3
			c3.2-1.8,5.1-5.1,5.1-8.7V20h49.5v186.4H162.8L162.8,20z M176.5,275.6L158,264.2c-3.2-2-7.3-2-10.5,0L129,275.6v-49.3h47.5
			L176.5,275.6z M256.2,490.5c-45.1-26.5-65.2-53.8-65.2-88v-40.1c35.6-9.7,54.5-25.8,65.2-35.3c10.7,9.5,29.7,25.6,65.3,35.3v40.1
			c0,6.3-0.7,12.3-2.1,18.1c0,0.1,0,0.1,0,0.2C313.1,446.7,292.9,468.9,256.2,490.5L256.2,490.5z M452.5,412.7H340.9
			c0.3-3.4,0.5-6.8,0.5-10.3v-47.9c0-4.7-3.2-8.7-7.8-9.7c-37-8.5-54.7-24.2-65.3-33.7c-0.8-0.7-1.6-1.4-2.4-2.1v-82.7h49.5v67.2
			c0,3.6,2,7,5.1,8.7c3.2,1.8,7,1.7,10.1-0.2l28.5-17.5l28.5,17.5c6.6,4,15.2-0.9,15.2-8.5v-67.2h49.5V412.7z"/>
		<path class="st0" d="M291.5,380.4c-4.2-3.5-10.5-3-14.1,1.2l-31.2,37.2l-12.3-10.4c-4.2-3.6-10.5-3-14.1,1.2
			c-3.6,4.2-3.1,10.5,1.2,14.1l20,17c1.8,1.5,4.1,2.4,6.5,2.4c0.3,0,0.6,0,0.9,0c2.7-0.2,5.1-1.5,6.8-3.5l37.7-45
			C296.2,390.2,295.7,383.9,291.5,380.4z"/>
		<path class="st0" d="M49.5,329.5c5.5,0,10-4.5,10-10s-4.5-10-10-10s-10,4.5-10,10v0C39.5,325,44,329.5,49.5,329.5z"/>
	</g>
</g>
</svg>
