<?xml version="1.0" encoding="utf-8"?>
<!-- Generator: Adobe Illustrator 22.0.1, SVG Export Plug-In . SVG Version: 6.00 Build 0)  -->
<svg version="1.1" id="Layer_1" xmlns="http://www.w3.org/2000/svg" xmlns:xlink="http://www.w3.org/1999/xlink" x="0px" y="0px"
	 viewBox="0 0 512 512" style="enable-background:new 0 0 512 512;" xml:space="preserve">
<style type="text/css">
	.st0{fill:#34282C;}
</style>
<path class="st0" d="M512,293.7c0-40.9-31.5-79.6-86.5-106.2C312.6,127,291.3,28.1,291.1,27.1l-1.4-7.1h-67.4l-1.4,7.1
	c-0.2,1-21.1,99.8-134.2,160.3C31.6,214,0,252.7,0,293.7c0,70.4,90.5,126.6,220,136.5c5.1,0.4,9.8,0.7,14.2,1l-41.5,6.9
	c-4.8,0.8-8.1,5.3-7.3,10.2c0.7,4.3,4.5,7.4,8.7,7.4c0.5,0,1,0,1.5-0.1l33.4-5.6l-16.4,16.4c-3.5,3.5-3.5,9,0,12.5
	c1.7,1.7,4,2.6,6.2,2.6c2.3,0,4.5-0.9,6.2-2.6l22-22v28.1c0,4.9,4,8.8,8.8,8.8c4.9,0,8.8-4,8.8-8.8v-28.1l22,22
	c1.7,1.7,4,2.6,6.2,2.6c2.3,0,4.5-0.9,6.2-2.6c3.5-3.5,3.5-9,0-12.5l-16.5-16.5l33.2,6.6c0.6,0.1,1.2,0.2,1.7,0.2
	c4.1,0,7.8-2.9,8.6-7.1c1-4.8-2.1-9.4-6.9-10.4l-38.9-7.8c3.5-0.2,7.2-0.3,11.2-0.6C421.5,423.4,512,367,512,293.7z M255.7,92.9
	c3.2,16.5,7.7,36.8,14.1,60.9c4.1,15.4,8.6,29.2,13.5,41.2c3,7.3,4.2,10,6.2,14.7c1.8,4,4.2,9.6,9,21c7.5,17.5,11,41,10.2,67.8
	c-1.8,64-27.6,108.8-51.9,115.8c-0.8,0-1.7,0-2.5,0c-24.2-7.1-50-51.9-51.8-115.8c-0.8-26.8,2.8-50.2,10.2-67.8
	c4.8-11.4,7.3-16.9,9-20.9c2.1-4.7,3.2-7.4,6.2-14.7c4.9-12,9.4-25.9,13.5-41.2C248,129.6,252.5,109.4,255.7,92.9z M326.5,298.9
	c0.8-29.7-3.1-55-11.6-75.2c-4.9-11.5-7.3-17.1-9.1-21.1c-2-4.6-3.1-7.2-6-14.3c-4.6-11.3-8.9-24.4-12.8-39.1
	c-6.1-23-10.4-42.2-13.5-58c11.5,26.7,31.4,63.2,63.1,94.9c7.3,7.3,10.1,9.9,15.1,14.6c4.3,4,10.1,9.4,21.8,20.6
	c17.6,16.8,25.6,38.3,23.8,63.6c-3.7,53.2-49.6,97.4-100.7,118.8C313.9,379.2,325.3,341.4,326.5,298.9z M224.5,149.2
	c-3.9,14.6-8.2,27.8-12.8,39.1c-2.9,7.1-4,9.7-6.1,14.3c-1.8,4.1-4.2,9.6-9.1,21.1c-8.6,20.2-12.5,45.4-11.6,75.2
	c1.2,42.3,12.5,80,29.7,104.5c-50.9-21.5-96.2-65.5-100-118.5c-1.8-25.4,6.2-46.8,23.8-63.6c11.7-11.2,17.6-16.7,21.8-20.6
	c5-4.7,7.9-7.3,15.1-14.6c30.8-30.8,50.5-66.2,62.1-92.7C234.5,108.9,230.3,127.4,224.5,149.2z M417.3,203.1l0.3,0.2
	c48.8,23.6,76.7,56.5,76.7,90.4c0,56.6-70.1,103.1-170.8,116.4c47.9-26.3,87.6-71,91.3-123.9c2.1-30.4-7.9-57.3-29.2-77.6
	c-11.8-11.3-17.7-16.8-22-20.8c-4.9-4.5-7.6-7.1-14.7-14.2c-38.5-38.5-58.5-84.8-67-108.9c-4.2-11.9-7.6-20.7-10.9-27.1h4.5
	C282.6,62.7,313.3,147.4,417.3,203.1z M17.7,293.7c0-33.9,28-66.8,77-90.6c104-55.7,134.7-140.4,141.7-165.4h4.5
	c-3.4,6.4-6.8,15.2-10.9,27c-8.5,24.1-28.5,70.4-67,108.9c-7,7-9.8,9.6-14.7,14.2c-4.3,4-10.2,9.5-22,20.8
	c-21.2,20.3-31.3,47.2-29.2,77.6c3.6,51.7,41.7,95.7,88.2,122.2C86.3,392.9,17.7,347.2,17.7,293.7z"/>
</svg>
