<?xml version="1.0" encoding="utf-8"?>
<!-- Generator: Adobe Illustrator 22.0.1, SVG Export Plug-In . SVG Version: 6.00 Build 0)  -->
<svg version="1.1" id="Capa_1" xmlns="http://www.w3.org/2000/svg" xmlns:xlink="http://www.w3.org/1999/xlink" x="0px" y="0px"
	 viewBox="0 0 512 512" style="enable-background:new 0 0 512 512;" xml:space="preserve">
<style type="text/css">
	.st0{fill:#34282C;}
</style>
<g id="XMLID_677_">
	<g id="XMLID_509_">
		<path id="XMLID_535_" class="st0" d="M502,277.2h-16.8l-27.7-81.2c-1.4-4.1-5.2-6.8-9.5-6.8h-88v-46c0-5.5-4.5-10-10-10h-48V104
			c0-27.6-22.4-50-50-50H108c-27.6,0-50,22.4-50,50v29.2H10c-5.5,0-10,4.5-10,10v256c0,5.5,4.5,10,10,10h44.2
			c2.4,27.3,25.4,48.8,53.3,48.8s50.9-21.5,53.3-48.8h55.6c5.5,0,10-4.5,10-10s-4.5-10-10-10h-57.6c-3.4-11.4-10.5-21.2-19.9-28H340
			v28h-33.6c-5.5,0-10,4.5-10,10s4.5,10,10,10H357c2.4,27.3,25.4,48.8,53.3,48.8s50.9-21.5,53.3-48.8H502c5.5,0,10-4.5,10-10v-112
			C512,281.6,507.5,277.2,502,277.2z M492,321.2h-24v-24h24V321.2z M440.8,209.2l23.2,68H360v-68H440.8z M210,74v48.6l-24.2-17.3
			c-1.7-1.2-3.8-1.9-5.8-1.9s-4.1,0.6-5.8,1.9L150,122.6V74H210z M78,104c0-16.5,13.5-30,30-30h22v68c0,3.7,2.1,7.2,5.4,8.9
			c3.3,1.7,7.3,1.4,10.4-0.8l34.2-24.5l34.2,24.5c1.7,1.2,3.8,1.9,5.8,1.9c1.6,0,3.1-0.4,4.6-1.1c3.3-1.7,5.4-5.1,5.4-8.9V74h22
			c16.5,0,30,13.5,30,30v144c0,16.5-13.5,30-30,30H108c-16.5,0-30-13.5-30-30L78,104z M107.5,438C89,438,74,423,74,404.5
			S89,371,107.5,371s33.5,15,33.5,33.5S126,438,107.5,438z M56.2,389.2H20v-28h56.2C66.8,368,59.7,377.8,56.2,389.2z M20,341.2v-188
			h38V248c0,27.6,22.4,50,50,50h144c27.6,0,50-22.4,50-50v-94.8h38v188H20z M410.3,438c-18.5,0-33.5-15-33.5-33.5s15-33.5,33.5-33.5
			s33.5,15,33.5,33.5S428.8,438,410.3,438z M461.5,389.2c-6.6-22-27.1-38.2-51.3-38.2c-23.1,0-42.8,14.7-50.3,35.3v-89.1h88v34
			c0,5.5,4.5,10,10,10h34v48L461.5,389.2z"/>
		<path id="XMLID_1762_" class="st0" d="M216.4,249.7H248c5.5,0,10-4.5,10-10s-4.5-10-10-10h-31.6c-5.5,0-10,4.5-10,10
			S210.8,249.7,216.4,249.7z"/>
		<path id="XMLID_1763_" class="st0" d="M261.4,389.2c-2.6,0-5.2,1.1-7.1,2.9c-1.9,1.9-2.9,4.4-2.9,7.1s1.1,5.2,2.9,7.1
			s4.4,2.9,7.1,2.9s5.2-1.1,7.1-2.9c1.9-1.9,2.9-4.4,2.9-7.1s-1.1-5.2-2.9-7.1C266.6,390.2,264,389.2,261.4,389.2z"/>
	</g>
</g>
</svg>
