<?xml version="1.0" encoding="utf-8"?>
<!-- Generator: Adobe Illustrator 22.0.1, SVG Export Plug-In . SVG Version: 6.00 Build 0)  -->
<svg version="1.1" id="Layer_1" xmlns="http://www.w3.org/2000/svg" xmlns:xlink="http://www.w3.org/1999/xlink" x="0px" y="0px"
	 viewBox="0 0 193.4 80.9" style="enable-background:new 0 0 193.4 80.9;" xml:space="preserve">
<style type="text/css">
	.st0{fill:#AA3050;}
	.st1{fill-rule:evenodd;clip-rule:evenodd;fill:#7CCE48;}
	.st2{fill-rule:evenodd;clip-rule:evenodd;fill:#D9ACC3;}
	.st3{fill-rule:evenodd;clip-rule:evenodd;fill:#C26E90;}
	.st4{fill-rule:evenodd;clip-rule:evenodd;fill:#37A52D;}
	.st5{fill-rule:evenodd;clip-rule:evenodd;fill:#AB305C;}
	.st6{fill-rule:evenodd;clip-rule:evenodd;fill:#B3456D;}
	.st7{fill-rule:evenodd;clip-rule:evenodd;fill:#BA597E;}
</style>
<path class="st0" d="M83.4,79.5V15.3c0-2.9,0.9-5.3,2.8-7.2c1.9-2,4.2-2.9,6.8-2.9h13.4c2.6,0,4.9,1,6.8,2.9c1.9,2,2.8,4.4,2.8,7.2
	v64.2h-11.8V47.9l-9.1,4.8v26.8H83.4L83.4,79.5z M95.1,39.5l9.1-4.8V16.3h-9.1V39.5L95.1,39.5z M124.6,10.4l11.8-5.9v10.7l-11.8,5.9
	V10.4L124.6,10.4z M124.6,79.5v-53l11.8-5.9v58.9H124.6L124.6,79.5z M144.9,79.5v-69l11.8-5.9v74.9H144.9L144.9,79.5z"/>
<path class="st0" d="M193.4,70c0,2.7-0.9,5-2.6,6.8c-1.8,1.8-3.9,2.7-6.3,2.7h-12c-2.5,0-4.6-0.9-6.3-2.7c-1.8-1.8-2.6-4.1-2.6-6.7
	V56.5l19-9.5V34.5h-8v10l-11,5.5V33.5c0-2.6,0.9-4.8,2.6-6.7c1.8-1.9,3.9-2.8,6.3-2.8h12c2.5,0,4.6,0.9,6.3,2.7
	c1.8,1.8,2.6,4.1,2.6,6.7V70L193.4,70z M174.4,61v8h8V57L174.4,61L174.4,61z"/>
<path class="st1" d="M70.3,72.7c-3.3,2.4-7.1,4.3-11.2,5.8C36.8,86.1,11.6,75.3,3,54.3c-8.7-21,2.4-44.2,24.7-51.9
	C31.8,1,36,0.2,40.2,0c-0.6,0.2-1.2,0.4-1.8,0.6C17.1,7.9,6.5,30.1,14.8,50.2c8.3,20.1,32.3,30.5,53.7,23.1
	C69.1,73.2,69.7,72.9,70.3,72.7L70.3,72.7z"/>
<path class="st2" d="M72.3,71.6c6.8-5.5,5.5-10.7,1.1-15.7C73.7,69,56.5,67.2,48.9,80C60.4,72.1,64,78.1,72.3,71.6L72.3,71.6z"/>
<path class="st3" d="M38.1,79.3c-3.2-8.4-6.4-16.8-9.6-25.2c1.8-4-2.3-8.6-10.7-13.6c-0.9,10.4-8.6,17.5-3,25.6
	C21.1,75.3,31.6,72,38.1,79.3L38.1,79.3z"/>
<path class="st4" d="M47.8,23.1c0.3-3.1,0-6.2-0.8-9.2c-1.4,2.5-2.7,5.2-3.5,10c0.3,3,0.6,5.9,0.9,8.9
	C46.3,30.7,47.2,28.3,47.8,23.1L47.8,23.1z"/>
<path class="st1" d="M41.2,26.8c-0.3-2.3,0-4.6,0.6-6.8c1,1.8,2,3.8,2.6,7.4c0.3,2.3-0.4,4.4-0.7,6.6C42.3,32.5,41.6,30.7,41.2,26.8
	L41.2,26.8z"/>
<path class="st5" d="M44.1,79.9c-0.6,0-1-0.2-1.3-0.7c-0.7,0.8-1.6,0.8-2.6,0.1c-0.3,0.5-0.8,0.8-1.6,0.8
	c-4.9-9.5-29.1-8.4-19.7-25.8C25.1,42.7,40.6,42,41.1,31.6l6-1.6C46,42,62.8,42.1,69.3,54.3c9.4,17.4-14.8,16.3-19.7,25.8
	c-0.8,0.1-1.3-0.2-1.6-0.8c-1,0.8-1.9,0.7-2.6-0.1C45.1,79.7,44.6,79.9,44.1,79.9L44.1,79.9z"/>
<path class="st2" d="M46.6,30.1c-1.8,11.1,15,13.2,20.3,24.9c5.8,13-10.5,15.7-22.8,22.7v0l0,0l0,0v0c-12.3-7-28.6-9.7-22.8-22.7
	c5-11.3,20.8-13.6,20.4-23.7L46.6,30.1L46.6,30.1z"/>
<path class="st6" d="M46.6,30.1c-1.8,11.1,14.7,13.2,19.8,24.9c5.7,13-10.2,15.7-22.3,22.7v0l0,0l0,0v0c-12-7-27.9-9.7-22.3-22.7
	c4.9-11.3,20.3-13.6,20-23.7L46.6,30.1L46.6,30.1z"/>
<path class="st2" d="M42.9,31.1c0,9.1-13.9,15.3-16.3,23.7c-2.9,12.6,10.1,15.6,17.5,22.9v0.1l0.1-0.1l0.1,0.1v-0.1
	c7.3-7.3,20.3-10.3,17.5-22.9c-2.4-8.6-16.9-14.8-16.2-24.3L42.9,31.1L42.9,31.1z"/>
<path class="st7" d="M43,31.1c0,9.1-12.8,15.3-14.9,23.7c-2.7,12.6,9.3,15.6,16,22.9v0.1l0-0.1l0,0.1v-0.1
	c6.7-7.3,18.7-10.3,16-22.9C58,46.2,44.7,39.9,45.3,30.5L43,31.1L43,31.1z"/>
<path class="st2" d="M44.9,30.6c-0.4,10.8,7.7,16.6,8.1,25.1c0.6,12-4.6,16.3-8.8,21.8v0.1l-0.1-0.1l-0.1,0.1v-0.1
	c-4.1-5.5-9.4-9.8-8.8-21.8c0.4-8.4,8.3-14.2,8.1-24.8L44.9,30.6L44.9,30.6z"/>
<path class="st3" d="M44.8,30.6c-0.3,10.8,6.5,16.6,6.9,25.1c0.5,12-3.9,16.3-7.5,21.8v0.1l0-0.1l0,0.1v-0.1
	c-3.5-5.5-8-9.8-7.5-21.8c0.4-8.4,7.1-14.2,6.9-24.8L44.8,30.6L44.8,30.6z"/>
</svg>
